<?xml version="1.0" standalone="no"?>
<!DOCTYPE svg PUBLIC "-//W3C//DTD SVG 20010904//EN"
 "http://www.w3.org/TR/2001/REC-SVG-20010904/DTD/svg10.dtd">
<svg version="1.0" xmlns="http://www.w3.org/2000/svg"
 width="500.000000pt" height="500.000000pt" viewBox="0 0 500.000000 500.000000"
 preserveAspectRatio="xMidYMid meet">

<g transform="translate(0.000000,500.000000) scale(0.100000,-0.100000)"
fill="#000000" stroke="none">
<path d="M2150 4604 c0 -36 -3 -64 -7 -62 -70 36 -86 39 -126 26 -58 -18 -87
-64 -87 -138 0 -43 6 -65 23 -91 40 -60 111 -77 160 -39 14 11 28 20 31 20 3
0 6 -9 6 -20 0 -17 7 -20 40 -20 l40 0 0 195 0 195 -40 0 -40 0 0 -66z m-34
-112 c16 -11 34 -48 34 -72 0 -27 -43 -70 -70 -70 -11 0 -32 11 -45 25 -47 46
-23 125 38 125 18 0 37 -4 43 -8z"/>
<path d="M3290 4604 c0 -36 -3 -64 -7 -62 -70 36 -86 39 -126 26 -58 -18 -87
-64 -87 -138 0 -43 6 -65 23 -91 40 -60 111 -77 160 -39 14 11 28 20 31 20 3
0 6 -9 6 -20 0 -17 7 -20 40 -20 l40 0 0 195 0 195 -40 0 -40 0 0 -66z m-34
-112 c16 -11 34 -48 34 -72 0 -27 -43 -70 -70 -70 -12 0 -32 11 -45 25 -47 46
-23 125 38 125 18 0 37 -4 43 -8z"/>
<path d="M603 4631 c-33 -21 -46 -48 -45 -95 1 -40 34 -70 102 -95 66 -24 84
-41 75 -71 -9 -28 -70 -28 -85 0 -8 15 -21 20 -54 20 -41 0 -43 -1 -38 -25 2
-14 17 -36 33 -50 86 -72 234 -25 234 74 0 52 -22 74 -105 106 -38 14 -71 33
-74 41 -8 20 3 42 25 49 20 7 59 -10 59 -25 0 -6 20 -10 45 -10 54 0 58 15 16
62 -25 28 -35 32 -92 35 -51 3 -71 0 -96 -16z"/>
<path d="M2410 4465 l0 -185 45 0 45 0 0 70 0 70 54 0 c39 0 62 6 87 23 58 39
65 124 13 172 -30 28 -64 35 -165 35 l-79 0 0 -185z m176 107 c6 -4 14 -17 18
-29 10 -32 -24 -63 -69 -63 l-35 0 0 50 0 50 38 0 c20 0 42 -4 48 -8z"/>
<path d="M4430 4605 c0 -24 -5 -35 -15 -35 -10 0 -15 -11 -15 -35 0 -24 5 -35
15 -35 12 0 15 -14 15 -65 0 -91 18 -131 67 -144 69 -19 83 -16 83 23 0 30 -3
35 -27 38 -27 3 -28 5 -31 76 l-3 72 31 0 c28 0 30 3 30 35 0 32 -2 35 -30 35
-28 0 -30 3 -30 35 0 35 0 35 -45 35 -45 0 -45 0 -45 -35z"/>
<path d="M982 4570 c-74 -18 -123 -102 -103 -177 14 -53 38 -83 77 -99 67 -28
133 -14 183 40 35 37 41 127 12 173 -33 52 -104 79 -169 63z m93 -93 c21 -30
19 -70 -6 -101 -41 -52 -109 -20 -109 52 0 72 76 104 115 49z"/>
<path d="M2827 4566 c-49 -18 -67 -34 -84 -73 -55 -132 69 -254 201 -199 71
30 102 115 71 194 -28 70 -113 105 -188 78z m105 -89 c4 -7 8 -29 8 -49 0 -44
-28 -78 -63 -78 -68 0 -88 125 -25 149 25 9 68 -3 80 -22z"/>
<path d="M3525 4570 c-17 -5 -44 -23 -60 -40 -25 -26 -30 -40 -33 -93 -2 -50
1 -69 18 -95 53 -84 200 -80 245 8 l16 30 -46 0 c-28 0 -52 -6 -61 -15 -22
-22 -60 -18 -78 7 -24 34 -20 85 9 113 29 30 35 31 68 5 16 -12 40 -20 65 -20
35 0 39 2 35 20 -7 26 -68 80 -91 80 -9 0 -26 2 -37 4 -11 3 -34 1 -50 -4z"/>
<path d="M3830 4567 c-103 -36 -110 -224 -10 -274 37 -19 84 -16 113 7 14 11
28 20 31 20 3 0 6 -9 6 -20 0 -17 7 -20 40 -20 l40 0 0 145 0 145 -40 0 c-34
0 -40 -3 -40 -20 0 -21 0 -21 -27 -1 -38 27 -71 33 -113 18z m106 -75 c16 -11
34 -48 34 -72 0 -27 -43 -70 -70 -70 -12 0 -32 11 -45 25 -47 46 -23 125 38
125 18 0 37 -4 43 -8z"/>
<path d="M4190 4570 c-43 -11 -70 -43 -70 -85 0 -41 16 -55 94 -80 48 -16 61
-24 61 -40 0 -26 -55 -34 -75 -11 -13 16 -90 23 -90 8 0 -19 35 -55 66 -68 98
-41 205 20 175 99 -11 30 -32 42 -102 63 -36 11 -49 20 -49 33 0 33 62 37 74
5 3 -8 20 -14 41 -14 28 0 35 4 35 19 0 20 -53 71 -73 71 -7 0 -21 2 -32 4
-11 3 -36 1 -55 -4z"/>
<path d="M1230 4459 l0 -111 34 -34 c40 -40 83 -45 134 -14 32 20 32 20 32 0
0 -17 7 -20 40 -20 l40 0 0 145 0 145 -40 0 -40 0 0 -93 c0 -103 -12 -127 -62
-127 -46 0 -58 27 -58 128 l0 92 -40 0 -40 0 0 -111z"/>
<path d="M1590 4425 l0 -145 40 0 40 0 0 95 c0 82 3 98 20 115 11 11 29 20 40
20 11 0 29 -9 40 -20 17 -17 20 -33 20 -115 l0 -95 40 0 40 0 0 116 c0 114 0
116 -29 145 -25 24 -38 29 -79 29 -32 0 -54 -5 -62 -15 -7 -8 -16 -15 -21 -15
-5 0 -9 7 -9 15 0 11 -11 15 -40 15 l-40 0 0 -145z"/>
<path d="M2677 4140 c-139 -25 -321 -103 -336 -143 -19 -52 -54 -265 -46 -283
6 -14 12 4 20 64 6 45 17 88 24 95 12 12 12 -7 -4 -135 -5 -38 10 -62 19 -31
3 10 8 51 12 91 5 50 11 72 20 72 7 0 12 -6 10 -12 -3 -7 -7 -42 -10 -78 -9
-92 9 -65 33 50 10 52 24 114 30 138 11 40 13 42 51 42 22 0 40 -4 40 -10 0
-5 -14 -71 -31 -147 -25 -111 -66 -369 -69 -430 0 -7 -5 -13 -11 -13 -12 0
-11 11 7 195 5 44 3 57 -5 50 -6 -6 -16 -57 -23 -113 -11 -95 -21 -133 -31
-122 -3 3 -1 49 5 103 9 90 7 119 -7 105 -3 -2 -10 -50 -17 -106 -15 -128 -33
-125 -23 4 9 123 -8 124 -24 2 -7 -51 -14 -94 -17 -97 -13 -13 -15 16 -6 96 5
48 7 91 5 96 -11 20 -22 -10 -28 -81 -6 -72 -18 -114 -28 -102 -2 3 0 49 5
103 9 89 7 119 -7 105 -3 -2 -10 -50 -17 -106 -13 -117 -35 -143 -24 -29 4 39
10 117 12 171 3 55 12 131 20 169 8 39 13 72 11 74 -11 10 -30 -33 -33 -75 -5
-62 -33 -317 -41 -364 -9 -59 -25 -45 -19 15 4 28 13 115 22 192 8 77 18 151
21 165 5 23 4 24 -11 9 -13 -12 -22 -57 -36 -185 -23 -203 -28 -234 -40 -234
-4 0 -6 17 -4 38 39 342 39 344 21 317 -8 -11 -22 -91 -32 -178 -10 -86 -22
-160 -26 -163 -5 -3 -9 4 -9 16 0 27 18 205 25 245 5 30 5 30 -10 8 -9 -13
-22 -74 -31 -145 -9 -68 -18 -125 -20 -127 -11 -12 -12 13 -4 89 4 47 7 86 5
88 -4 4 -42 -98 -63 -168 -13 -45 -16 -125 -20 -462 l-3 -408 -134 0 -134 0
-21 -27 c-22 -28 -22 -29 -17 -443 4 -343 7 -428 21 -490 101 -443 392 -768
810 -905 58 -19 147 -40 196 -47 l90 -12 0 -158 0 -158 -154 0 c-149 0 -155
-1 -170 -22 -25 -36 -20 -83 11 -108 26 -20 33 -21 401 -18 l374 3 19 24 c22
28 25 69 5 97 -13 17 -31 20 -173 24 l-158 5 0 155 0 154 100 17 c141 23 228
51 355 115 316 158 533 426 628 774 26 94 26 98 30 533 3 387 1 442 -13 463
-15 23 -19 24 -150 24 l-134 0 -4 343 c-3 305 -16 530 -32 545 -3 3 -5 -3 -6
-14 0 -10 -7 -59 -14 -109 -15 -93 -14 -79 0 110 6 64 4 84 -9 100 -15 19 -15
18 -16 -25 -1 -25 -7 -83 -14 -130 -18 -117 -19 -37 -2 100 l14 105 -35 64
c-113 210 -302 360 -545 431 -82 24 -288 35 -371 20z m179 -108 c8 -2 6 -26
-7 -84 -27 -121 -45 -233 -65 -410 -10 -87 -22 -158 -27 -158 -9 0 -3 127 10
213 3 23 2 37 -5 37 -12 0 -17 -23 -33 -152 -6 -54 -16 -98 -22 -98 -6 0 -7
20 -4 53 13 111 19 232 12 224 -5 -4 -16 -64 -26 -133 -16 -116 -23 -144 -33
-133 -2 2 1 57 8 122 16 157 -4 152 -23 -6 -9 -70 -19 -117 -26 -117 -8 0 -8
31 1 113 6 61 8 116 4 120 -9 10 -14 -13 -30 -135 -13 -95 -37 -127 -27 -35
16 136 19 205 10 210 -5 4 -15 -45 -23 -116 -11 -104 -14 -118 -23 -93 -17 50
18 308 51 376 43 87 117 125 157 79 19 -20 19 -19 32 43 19 92 16 90 89 80z
m213 -108 c59 -12 84 -93 43 -138 -14 -15 -21 -41 -25 -91 -9 -103 -42 -333
-50 -341 -10 -10 -8 33 6 164 10 85 10 112 1 112 -12 0 -16 -20 -35 -177 -7
-57 -16 -103 -22 -103 -5 0 -7 18 -4 43 4 23 9 74 12 112 3 39 8 80 11 93 3
14 0 22 -10 22 -10 0 -17 -26 -25 -97 -16 -131 -22 -163 -30 -163 -4 0 -1 59
6 132 7 72 10 134 8 137 -14 13 -23 -24 -35 -130 -6 -64 -16 -122 -21 -130
-12 -19 -12 0 3 149 7 82 8 126 1 133 -6 6 -15 -38 -27 -133 -10 -79 -20 -145
-22 -147 -14 -14 -14 23 0 149 9 79 16 166 16 194 0 102 36 170 105 201 35 16
51 17 94 9z m303 -4 c35 -10 36 -12 27 -39 -9 -27 -14 -29 -56 -28 -38 2 -48
-2 -65 -24 -12 -15 -21 -46 -23 -70 -1 -24 0 -32 2 -16 2 15 9 27 14 27 5 0 7
-17 3 -40 -5 -33 -4 -40 10 -40 8 0 18 10 20 23 3 12 7 31 9 42 3 11 5 3 6
-17 1 -27 6 -38 16 -38 8 0 15 8 15 17 0 13 3 14 12 5 9 -9 9 -28 0 -84 -6
-40 -17 -121 -24 -180 -6 -60 -15 -108 -20 -108 -4 0 -5 19 -3 43 30 251 29
237 10 237 -8 0 -15 -5 -15 -11 0 -22 -32 -274 -36 -288 -12 -36 -11 5 2 124
17 163 17 165 1 165 -10 0 -17 -32 -26 -112 -7 -62 -17 -131 -21 -153 -7 -35
-8 -37 -9 -10 -1 17 4 85 11 153 11 114 7 153 -11 124 -4 -7 -13 -67 -20 -135
-13 -120 -29 -193 -30 -137 -1 14 6 86 14 160 13 111 13 136 2 147 -11 11 -15
-6 -26 -105 -15 -150 -33 -214 -26 -92 3 47 12 141 21 210 19 157 41 206 104
238 50 25 60 26 112 12z m-517 -167 c-15 -150 -45 -376 -50 -381 -3 -3 -7 -3
-9 -1 -4 4 14 191 35 355 13 108 34 131 24 27z m280 -10 c-3 -27 -12 -109 -20
-183 -20 -181 -26 -220 -34 -220 -4 0 -4 35 1 78 24 236 42 372 50 372 5 0 6
-21 3 -47z m-613 -34 c-7 -95 -23 -181 -37 -195 -13 -13 -14 -12 -10 13 2 15
9 74 16 131 7 66 15 102 22 99 7 -2 10 -22 9 -48z m918 -175 c-11 -99 -20
-187 -20 -196 0 -10 -4 -18 -8 -18 -5 0 -7 12 -5 28 1 15 10 92 18 172 18 163
26 220 32 204 2 -6 -5 -92 -17 -190z m-45 6 c-16 -142 -32 -231 -34 -185 -1
21 24 250 36 325 15 98 14 -1 -2 -140z m110 153 c-2 -16 -12 -97 -21 -182 -9
-85 -20 -164 -25 -175 -6 -15 -7 -8 -4 24 22 211 37 337 40 348 8 23 15 12 10
-15z m28 -178 c-15 -135 -18 -153 -27 -144 -4 5 23 257 30 278 12 36 11 -6 -3
-134z m47 3 c-7 -68 -16 -130 -21 -138 -6 -10 -8 1 -4 30 21 190 28 240 33
236 3 -3 -1 -61 -8 -128z m17 -225 c-3 -10 -5 -4 -5 12 0 17 2 24 5 18 2 -7 2
-21 0 -30z m-331 -73 c57 -22 72 -83 29 -125 l-24 -25 -449 0 c-439 0 -450 0
-476 21 -45 35 -28 121 27 132 50 10 867 7 893 -3z m29 -405 c30 -29 32 -74 6
-106 l-19 -24 -454 -3 c-449 -3 -455 -2 -481 18 -38 30 -38 90 -1 119 26 21
37 21 476 21 l449 0 24 -25z m-1363 -722 c4 -330 6 -364 27 -438 70 -257 240
-466 466 -575 117 -56 189 -77 309 -89 168 -17 334 17 500 101 88 45 114 65
206 158 119 120 171 202 219 345 41 123 51 237 51 570 l0 285 76 0 75 0 -3
-377 c-4 -355 -6 -383 -27 -458 -107 -379 -389 -658 -762 -754 -108 -28 -287
-38 -400 -22 -365 53 -686 307 -820 650 -65 167 -70 205 -76 604 l-5 357 80 0
80 0 4 -357z m1365 335 c30 -28 30 -74 1 -105 l-21 -23 -459 0 c-445 0 -459 1
-478 20 -12 12 -20 33 -20 55 0 22 8 43 20 55 19 19 33 20 477 20 455 0 457 0
480 -22z m-31 -368 c57 -22 72 -83 29 -125 l-24 -25 -449 0 c-439 0 -450 0
-476 21 -45 35 -28 121 27 132 50 10 867 7 893 -3z"/>
<path d="M2683 3848 c-16 -20 -25 -160 -10 -155 7 2 16 35 20 75 5 40 14 72
19 72 7 0 9 -22 5 -62 -8 -71 8 -62 19 11 6 36 3 47 -12 58 -22 16 -29 16 -41
1z"/>
<path d="M3001 3854 c-11 -8 -25 -23 -31 -33 -8 -16 -6 -18 19 -17 31 1 61 22
61 41 0 20 -26 25 -49 9z"/>
<path d="M3053 3753 c-15 -6 -17 -63 -3 -63 6 0 13 6 16 14 9 23 0 53 -13 49z"/>
<path d="M3003 3743 c-19 -7 -16 -53 2 -53 10 0 15 10 15 30 0 17 -1 30 -2 29
-2 0 -9 -3 -15 -6z"/>
<path d="M2950 3733 c0 -5 5 -15 10 -23 8 -12 10 -11 10 8 0 12 -4 22 -10 22
-5 0 -10 -3 -10 -7z"/>
<path d="M872 2887 l-22 -23 0 -681 c0 -673 0 -681 21 -707 25 -32 66 -34 103
-5 l26 20 0 688 c0 678 0 688 -20 709 -28 30 -80 29 -108 -1z"/>
<path d="M4656 2888 c-14 -20 -16 -104 -16 -708 0 -534 3 -690 13 -703 20 -28
78 -33 107 -9 l25 20 0 690 c0 664 -1 691 -19 711 -27 30 -89 29 -110 -1z"/>
<path d="M1185 2505 l-25 -24 0 -295 c0 -162 3 -302 6 -311 18 -45 111 -48
134 -5 6 11 10 141 10 315 l0 296 -25 24 c-13 14 -36 25 -50 25 -14 0 -37 -11
-50 -25z"/>
<path d="M4356 2509 l-26 -20 0 -304 c0 -274 2 -305 18 -323 31 -38 101 -30
120 13 19 41 16 577 -3 614 -23 46 -66 54 -109 20z"/>
</g>
</svg>
